<svg xmlns="http://www.w3.org/2000/svg" width="500" height="500" style="width:100%;height:100%"><defs><clipPath id="b"><path d="M0 0h500v500H0z"/></clipPath><filter id="a" filterUnits="objectBoundingBox" x="0%" y="0%" width="100%" height="100%"><feComponentTransfer in="SourceGraphic"><feFuncA type="table" tableValues="1.0 0.0"/></feComponentTransfer></filter><mask id="c"><g filter="url(#a)"><g display="block"><path fill="#121331" d="M-1.48-50.14L-150-100l-47.74 61.77L-50 11.5l48.52-61.64zm.02-.03L146.5-100l49.74 46.27L49-4-1.46-50.17zm222.48-110.47L64-198.5l-65.24 47.77 147.68 50.67 74.58-60.58zm-432.98 13.03L-55-188.44l53.93 37.71L-150-99.94l-61.96-47.67z" transform="matrix(.9 0 0 .9 251.35 271.6)"/><path stroke-linecap="round" stroke-linejoin="round" fill-opacity="0" stroke="#08A88A" stroke-width="0" d="M250.016 226.473L116.35 181.6l-42.963 55.59 132.963 44.76 43.666-55.477zm.022-.028L383.2 181.6l44.765 41.64L295.45 268l-45.412-41.555zm200.228-99.422L308.95 92.95l-58.713 42.99 132.907 45.604 67.122-54.52zM60.588 138.751l141.262-36.745 48.534 33.933-134.034 45.717-55.762-42.905z"/></g></g></mask></defs><g clip-path="url(#b)"><g mask="url(#c)" display="block"><path stroke-linecap="round" stroke-linejoin="round" stroke="#383844" stroke-width="12.537" d="M250.016 226.473L116.35 181.6s-.196 45.894.355 97.2c.545 50.85.332 91.14.332 91.14L250 414.7s.016-60.3.008-95.85.008-92.377.008-92.377zm.022-.028L383.2 181.6s.148 54.004-.376 103.502-.309 84.837-.309 84.837L250 414.7s.038-57.6.019-96.3c-.019-38.7.019-91.955.019-91.955z" fill="none"/></g><path stroke-linecap="round" stroke-linejoin="round" stroke="#F4B69C" stroke-width="12.537" d="M250.016 226.473L116.35 181.6l-42.963 55.59 132.963 44.76 43.666-55.477zm.022-.028L383.2 181.6l44.765 41.64L295.45 268l-45.412-41.555zm200.228-99.422L308.95 92.95l-58.713 42.99 132.907 45.604 67.122-54.52zM60.588 138.751l141.262-36.745 48.534 33.933-134.034 45.717-55.762-42.905z" fill="none" display="block"/></g></svg>