<svg xmlns="http://www.w3.org/2000/svg" xmlns:xlink="http://www.w3.org/1999/xlink" width="1440" height="359" viewBox="0 0 1440 359">
  <defs>
    <clipPath id="clip-path">
      <rect id="Rectangle_218" data-name="Rectangle 218" width="1440" height="359" transform="translate(0 245)" fill="#fff" stroke="#707070" stroke-width="1"/>
    </clipPath>
    <linearGradient id="linear-gradient" x1="0.5" x2="0.5" y2="1" gradientUnits="objectBoundingBox">
      <stop offset="0" stop-color="#fdd2bb"/>
      <stop offset="1" stop-color="#f7f7ee"/>
    </linearGradient>
  </defs>
  <g id="Mask_Group_184" data-name="Mask Group 184" transform="translate(0 -245)" clip-path="url(#clip-path)">
    <path id="波浪" d="M7.636,960.188c42.842-54.68,119.322-173.736,182.444-164.728,40.4,5.764,74.956,39.518,115.446,44.321,38.985,4.622,76.015-18.158,110.737-39.29A2326.107,2326.107,0,0,1,627.2,686.5c33.515-15.927,67.96-31.164,104.069-34.175,52.614-4.39,103.94,17.407,153.363,38.861q101.964,44.268,203.928,88.529c30.227,13.123,62.257,26.463,94.026,19.93,45.04-9.259,79.026-56.328,124.008-65.967,50.691-10.859,98.1,27.868,141.315,60.549S1547.2,855.66,1592.041,826.1c24.05-15.853,42.768-47.5,70.406-47.636,13.364-.068,74.672,20,86.371,27.507,86.484,55.521,124.02,98.7,210.5,154.219Z" transform="translate(-404.277 -387.754)" fill="url(#linear-gradient)"/>
  </g>
</svg>
