<svg xmlns="http://www.w3.org/2000/svg" width="46.488" height="50.203" viewBox="0 0 46.488 50.203">
  <g id="Group_1036" data-name="Group 1036" transform="translate(-5478 -6412)">
    <g id="familymart-vector-logo" transform="translate(5478 6412)">
      <rect id="Rectangle_350" data-name="Rectangle 350" width="46.488" height="16.617" transform="translate(0 33.586)" fill="#0079c4"/>
      <path id="Path_927" data-name="Path 927" d="M313.1,291.98l-.974-2.48H310.7s1.757,4.247,1.727,4.287c-.01.03-.592,1.506-.623,1.546.04.01,1.426,0,1.436-.01.01-.07,2.129-5.824,2.129-5.824H314Z" transform="translate(-288.43 -267.662)" fill="#0079c4" fill-rule="evenodd"/>
      <path id="Path_928" data-name="Path 928" d="M271.223,268.7a.823.823,0,1,0,.823.823.827.827,0,0,0-.823-.823" transform="translate(-252.176 -248.95)" fill="#0079c4" fill-rule="evenodd"/>
      <path id="Path_929" data-name="Path 929" d="M158.056,293.137V290.4a1.445,1.445,0,0,0-1.476-1.4h-.371c-1.345.03-1.516.311-1.516.311v1.074a1.809,1.809,0,0,1,.994-.331c.572-.01.8.08.934.2a1.064,1.064,0,0,1,.09.11,1.025,1.025,0,0,1,.1.281.255.255,0,0,1-.02.07c-.01.01-.05.01-.05.01s-.04-.01-.05-.01c-.03-.02-.221-.131-.964-.1a1.883,1.883,0,0,0-1.084.482,1.412,1.412,0,0,0-.442,1.165,2,2,0,0,0,.321.964c.221.382.914.492.934.492a3.726,3.726,0,0,0,.9-.06,1.492,1.492,0,0,0,.4-.221c.03-.03.1-.02.1.01a.43.43,0,0,0,.06.221.325.325,0,0,0,.02.06h1.345a.629.629,0,0,1-.11-.151,4.184,4.184,0,0,1-.12-.442m-1.366-.572c-.09.08-.221.09-.813.09a.519.519,0,0,1-.442-.522c0-.723.743-.653.954-.653s.422.08.422.221c0,.11.01.442.01.592a.32.32,0,0,1-.131.271" transform="translate(-147.643 -267.212)" fill="#0079c4" fill-rule="evenodd"/>
      <path id="Path_930" data-name="Path 930" d="M432.256,293.137V290.4a1.437,1.437,0,0,0-1.476-1.4h-.372c-1.356.03-1.516.311-1.516.311v1.074a1.8,1.8,0,0,1,.984-.331c.572-.01.8.08.944.2a1.067,1.067,0,0,1,.09.11,1.025,1.025,0,0,1,.1.281.256.256,0,0,1-.02.07c-.01.01-.05.01-.05.01s-.04-.01-.05-.01c-.02-.02-.221-.131-.954-.1a1.919,1.919,0,0,0-1.094.482,1.412,1.412,0,0,0-.442,1.165,2,2,0,0,0,.321.964c.221.382.914.492.934.492a3.725,3.725,0,0,0,.9-.06,1.493,1.493,0,0,0,.4-.221c.03-.03.1-.02.1.01a.557.557,0,0,0,.06.221l.03.06H432.5a1.3,1.3,0,0,1-.12-.151,4.18,4.18,0,0,1-.12-.442m-1.366-.572c-.09.08-.221.09-.813.09a.519.519,0,0,1-.442-.522c0-.723.743-.653.954-.653s.422.08.422.221v.592a.293.293,0,0,1-.12.271" transform="translate(-394.312 -267.212)" fill="#0079c4" fill-rule="evenodd"/>
      <path id="Path_931" data-name="Path 931" d="M205.18,288.9c-.723,0-1.315.241-1.345.552h0c-.03-.311-.562-.552-1.225-.552a1.588,1.588,0,0,0-1.135.361v-.291H200.36c-.05,0-.06.02-.06.06v4.6h1.225v-3.042c0-.251.291-.452.663-.452s.663.2.663.452v3.042h1.255v-3.042c0-.251.291-.452.663-.452s.663.2.663.452v3.042h1.275v-3.414a1.42,1.42,0,0,0-1.526-1.315" transform="translate(-189.115 -267.122)" fill="#0079c4" fill-rule="evenodd"/>
      <path id="Path_932" data-name="Path 932" d="M475.235,289.532v-.392H474V293.8h1.225v-3.012a1.446,1.446,0,0,1,.863-.351,1.2,1.2,0,0,1,.733.191v-1.355a1.431,1.431,0,0,0-.653-.171,1.94,1.94,0,0,0-.934.432" transform="translate(-435.334 -267.302)" fill="#0079c4" fill-rule="evenodd"/>
      <rect id="Rectangle_351" data-name="Rectangle 351" width="1.245" height="4.659" transform="translate(18.414 21.838)" fill="#0079c4"/>
      <rect id="Rectangle_352" data-name="Rectangle 352" width="1.235" height="6.657" transform="translate(20.593 19.84)" fill="#0079c4"/>
      <path id="Path_933" data-name="Path 933" d="M112.7,270.875h3.012V269.6H111.4v6.657h1.3v-2.922h2.892V272.06H112.7Z" transform="translate(-109.141 -249.76)" fill="#0079c4" fill-rule="evenodd"/>
      <path id="Path_934" data-name="Path 934" d="M508.282,275.062v-1.215h-1.074V272.1l-1.225.562v1.175H505.3v1.215h.683v2.028h0v.131h.01a1.367,1.367,0,0,0,1.546,1.285,1.322,1.322,0,0,0,.693-.131v-1.155s-.11.09-.562.09-.452-.623-.452-.623v-1.637h1.064Z" transform="translate(-463.491 -252.009)" fill="#0079c4" fill-rule="evenodd"/>
      <path id="Path_935" data-name="Path 935" d="M364.7,271.638l-1.657-2.038H361.7v6.667h1.345v-4.6s1.406,1.8,1.657,2.129c.251-.321,1.657-2.119,1.657-2.129v4.6h1.355V269.6h-1.355l-1.657,2.038" transform="translate(-334.309 -249.76)" fill="#0079c4" fill-rule="evenodd"/>
      <rect id="Rectangle_353" data-name="Rectangle 353" width="46.488" height="14.78" transform="translate(0 0)" fill="#1eaa39"/>
    </g>
  </g>
</svg>
