<svg xmlns="http://www.w3.org/2000/svg" width="87.067" height="99.875" viewBox="0 0 87.067 99.875">
  <g id="gift-box" transform="translate(-32.828 0.001)">
    <g id="Group_412" data-name="Group 412" transform="translate(32.828 -0.001)">
      <path id="Path_882" data-name="Path 882" d="M114.127,34.682l-9.79-3.563A11.854,11.854,0,1,0,88.942,13.094L82.183,19.07l-1.337-8.961a11.857,11.857,0,1,0-23.379,3.95L48.236,10.7A8.775,8.775,0,0,0,37,15.938L33,26.92a2.922,2.922,0,0,0,1.746,3.745l45.662,16.62H36.322A2.922,2.922,0,0,0,33.4,50.206v40.9a8.775,8.775,0,0,0,8.765,8.765H100.6a8.775,8.775,0,0,0,8.765-8.765V57.821l2.26.823a2.922,2.922,0,0,0,3.745-1.746l4-10.982A8.775,8.775,0,0,0,114.127,34.682ZM62.617,94.031H42.166a2.925,2.925,0,0,1-2.922-2.922V53.127H62.617Zm11.687,0H68.461v-40.9H74.3ZM92.812,17.473a6.011,6.011,0,1,1,1.927,10.153l-9.5-3.458ZM65.573,7.014a6.011,6.011,0,0,1,9.494,3.96l1.5,10.035-9.5-3.458A6.039,6.039,0,0,1,65.573,7.014ZM66.95,36.165,39.5,26.173l3-8.236a2.925,2.925,0,0,1,3.745-1.746l24.709,8.993Zm10.982,4-5.491-2,4-10.982,5.491,2Zm25.589,50.946a2.925,2.925,0,0,1-2.922,2.922H80.147v-40.9H96.468l7.053,2.567V91.109Zm10.354-47.192-3,8.236L83.423,42.161l4-10.982,24.709,8.993A2.925,2.925,0,0,1,113.875,43.917Z" transform="translate(-32.828 0.001)" fill="#e64b4b"/>
    </g>
  </g>
</svg>
