<svg id="Capa_1" enable-background="new 0 0 512 512" height="512" viewBox="0 0 512 512" width="512" xmlns="http://www.w3.org/2000/svg"><g><path d="m406 0h-300c-24.813 0-45 20.187-45 45 0 19.555 12.541 36.228 30 42.42v63.415c0 82.217 44.156 162.337 120 204.222v111.943c0 24.813 20.187 45 45 45s45-20.187 45-45v-111.943c75.702-41.806 120-121.772 120-204.222v-63.415c17.459-6.192 30-22.865 30-42.42 0-24.813-20.187-45-45-45zm-15 120h-270v-30h270zm-21.202 121h-227.596c-13.659-27.641-21.202-58.46-21.202-90.165v-.835h270v.835c0 31.705-7.543 62.524-21.202 90.165zm-113.798 241c-8.271 0-15-6.729-15-15v-15h30v15c0 8.271-6.729 15-15 15zm23.292-149.416c-5.082 2.541-8.292 7.734-8.292 13.416v76h-30v-76c0-5.682-3.21-10.875-8.292-13.416-29.038-14.52-53.674-35.894-72.364-61.594h191.311c-18.69 25.7-43.325 47.074-72.363 61.594zm126.708-272.584h-300c-8.271 0-15-6.729-15-15s6.729-15 15-15h300c8.271 0 15 6.729 15 15s-6.729 15-15 15z"/></g></svg>