<?xml version="1.0" encoding="UTF-8" standalone="no"?>
<svg
   xmlns:dc="http://purl.org/dc/elements/1.1/"
   xmlns:cc="http://web.resource.org/cc/"
   xmlns:rdf="http://www.w3.org/1999/02/22-rdf-syntax-ns#"
   xmlns:svg="http://www.w3.org/2000/svg"
   xmlns="http://www.w3.org/2000/svg"
   xmlns:sodipodi="http://sodipodi.sourceforge.net/DTD/sodipodi-0.dtd"
   xmlns:inkscape="http://www.inkscape.org/namespaces/inkscape"
   width="269"
   height="271"
   id="svg2"
   sodipodi:version="0.32"
   inkscape:version="0.45.1"
   sodipodi:docname="OK_Taiwan.svg"
   inkscape:output_extension="org.inkscape.output.svg.inkscape"
   sodipodi:docbase="C:\Documents and Settings\ms\桌面"
   version="1.0">
  <metadata
     id="metadata23">
    <rdf:RDF>
      <cc:Work
         rdf:about="">
        <dc:format>image/svg+xml</dc:format>
        <dc:type
           rdf:resource="http://purl.org/dc/dcmitype/StillImage" />
      </cc:Work>
    </rdf:RDF>
  </metadata>
  <defs
     id="defs21" />
  <sodipodi:namedview
     inkscape:window-height="808"
     inkscape:window-width="1152"
     inkscape:pageshadow="2"
     inkscape:pageopacity="0.0"
     guidetolerance="10.0"
     gridtolerance="10.0"
     objecttolerance="10.0"
     borderopacity="1.0"
     bordercolor="#666666"
     pagecolor="#ffffff"
     id="base"
     width="269px"
     height="271px"
     inkscape:zoom="1.5738997"
     inkscape:cx="215.25686"
     inkscape:cy="140.49798"
     inkscape:window-x="-4"
     inkscape:window-y="-4"
     inkscape:current-layer="svg2" />
  <g
     transform="translate(-0.899414,64.72458)"
     style="fill:#ff0000;fill-rule:nonzero;stroke:none;stroke-width:0.04998pt;stroke-linecap:butt;stroke-linejoin:miter;stroke-dasharray:none"
     id="g4">
    <path
       d="M 104.808,12.8946 C 89.2647,2.8487 72.4209,0 54.3281,4.3487 C 36.2354,8.6963 22.3408,18.5928 12.6953,34.1367 C 2.84863,49.8801 0,66.7241 4.14843,84.6161 C 8.49707,102.709 18.3926,116.703 33.9365,126.549 C 49.6807,136.195 66.6231,138.944 84.7158,134.796 C 102.659,130.848 116.503,120.901 126.349,104.958 C 136.195,89.4141 138.944,72.6211 134.596,54.5281 C 130.647,36.5851 120.751,22.7412 104.808,12.8946 z M 62.2754,38.2841 C 70.7217,36.1361 78.8184,37.3851 86.5156,42.1331 C 93.9629,46.8311 98.8106,53.5281 100.959,62.1751 C 102.709,70.8211 101.359,79.0181 96.8115,86.6651 C 92.3135,94.1621 85.6162,99.0111 76.7695,101.159 C 68.1231,102.909 59.9258,101.56 52.2793,97.0111 C 44.582,91.8631 39.834,85.1661 38.085,76.9191 C 35.9356,68.2721 37.2852,60.1261 42.2334,52.4291 C 46.7813,44.7821 53.4287,40.0341 62.2754,38.2841 z "
       id="path6" />
  </g>
  <g
     transform="translate(128.89807,31.68748)"
     style="fill:#ff0000;fill-rule:nonzero;stroke:none;stroke-width:0.04998pt;stroke-linecap:butt;stroke-linejoin:miter;stroke-dasharray:none"
     id="g8">
    <path
       d="M 31.388,18.1934 C 26.241,15.6436 21.243,15.044 16.344,16.3936 C 10.796,17.5928 6.698,20.6416 3.95,25.5401 C 0.8,30.2881 0,35.586 1.6,41.4834 C 1.6,41.4834 22.242,131.248 22.242,131.248 C 23.791,137.695 27.14,142.443 32.287,145.391 C 37.186,147.941 42.184,148.64 47.331,147.441 C 53.23,145.891 57.478,142.743 60.027,137.995 C 62.776,133.297 63.576,127.999 62.375,122.052 C 62.375,122.052 56.178,95.6622 56.178,95.6622 C 56.178,95.6622 61.376,89.5142 61.376,89.5142 C 61.376,89.5142 102.51,125.3 102.51,125.3 C 108.058,130.248 114.155,131.897 120.852,130.347 C 125.55,129.148 129.599,126.3 132.948,121.802 C 136.896,116.454 137.946,110.855 136.197,104.958 C 135.397,100.61 133.148,96.8112 129.399,93.4632 C 129.399,93.4632 88.066,57.7276 88.066,57.7276 C 88.066,57.7276 105.758,36.4854 105.758,36.4854 C 110.506,31.1377 112.056,24.9405 110.506,17.8936 C 109.307,12.1953 106.058,7.5469 100.76,3.999 C 95.613,0.8496 90.514,0 85.416,1.3496 C 81.468,2.1494 77.919,4.3985 74.771,8.1475 C 74.771,8.1475 44.333,44.4326 44.333,44.4326 C 44.333,44.4326 41.434,32.3369 41.434,32.3369 C 40.035,26.0401 36.686,21.3418 31.388,18.1934 z "
       id="path10" />
  </g>
  <g
     style="fill:#ff0000;fill-rule:nonzero;stroke:none;stroke-width:0.04998pt;stroke-linecap:butt;stroke-linejoin:miter;stroke-dasharray:none"
     id="g12">
    <path
       d="M 267.443,26.5401 C 267.243,19.6426 264.494,13.5449 259.196,8.24707 C 253.648,2.74902 247.151,0 239.704,0 C 239.704,0 27.7393,0 27.7393,0 C 20.0928,0 13.5948,2.54981 8.24707,7.64747 C 2.74902,12.9951 0,19.293 0,26.5401 C 0,26.5401 0,69.0733 0,69.0733 C 0,72.0215 1.59961,73.4707 4.74805,73.4707 C 7.69727,73.4707 11.8955,71.5215 17.3936,67.5733 C 42.4336,49.4805 73.9209,35.9863 111.855,27.1397 C 165.384,14.5449 212.065,15.3447 251.8,29.4883 C 251.8,29.4883 260.046,33.3369 260.046,33.3369 C 261.796,34.1367 263.295,34.2363 264.494,33.6367 C 266.643,32.8369 267.643,30.4883 267.443,26.5401 z "
       id="path14" />
  </g>
  <g
     transform="translate(0,167.03368)"
     style="fill:#ff0000;fill-rule:nonzero;stroke:none;stroke-width:0.04998pt;stroke-linecap:butt;stroke-linejoin:miter;stroke-dasharray:none"
     id="g16">
    <path
       d="M 4.74805,37.185 C 1.59961,37.185 0,38.785 0,41.933 C 0,41.933 0,76.169 0,76.169 C 0,83.417 2.74902,89.614 8.24707,94.762 C 13.5948,100.06 20.0928,102.709 27.7393,102.709 C 27.7393,102.709 239.704,102.709 239.704,102.709 C 247.351,102.709 253.949,100.06 259.446,94.762 C 264.794,89.614 267.443,83.417 267.443,76.169 C 267.443,76.169 267.443,4.748 267.443,4.748 C 267.443,1.599 265.844,0 262.695,0 C 262.695,0 258.297,2.349 258.297,2.349 C 258.297,2.349 253.549,5.598 253.549,5.598 C 226.609,24.14 195.322,37.535 159.686,45.782 C 131.548,52.429 104.408,55.278 78.2188,54.329 C 53.2295,53.329 32.1875,48.98 15.044,41.334 C 8.54687,38.584 5.09863,37.185 4.74805,37.185 z "
       id="path18" />
  </g>
</svg>
