<svg id="Capa_1" enable-background="new 0 0 512 512" height="512" viewBox="0 0 512 512" width="512" xmlns="http://www.w3.org/2000/svg"><g><path d="m297.495 297.004v-82.009c0-22.881-18.614-41.496-41.495-41.496s-41.496 18.615-41.496 41.496v82.009c0 22.881 18.615 41.496 41.496 41.496s41.495-18.615 41.495-41.496zm-67.991 0v-82.009c0-14.61 11.886-26.496 26.496-26.496 14.609 0 26.495 11.886 26.495 26.496v82.009c0 14.61-11.886 26.496-26.495 26.496-14.61 0-26.496-11.886-26.496-26.496z"/><path d="m410.293 180.83-44.981-26.989 2.759-31.543c.285-3.295.43-6.591.43-9.797-.001-62.034-50.468-112.501-112.501-112.501s-112.5 50.467-112.5 112.5c0 3.196.144 6.491.428 9.805l2.76 31.536-44.98 26.988c-11.23 6.738-18.207 19.06-18.207 32.156v86.028c0 13.096 6.977 25.418 18.207 32.156l44.98 26.988-2.761 31.549c-.283 3.302-.427 6.596-.427 9.792 0 62.033 50.467 112.5 112.5 112.5s112.5-50.467 112.5-112.5c0-3.206-.145-6.502-.43-9.805l-2.759-31.536 44.981-26.989c11.23-6.738 18.207-19.06 18.207-32.156v-86.028c.001-13.094-6.976-25.416-18.206-32.154zm3.207 118.184c0 7.858-4.186 15.251-10.924 19.294l-49.003 29.402c-2.461 1.476-3.863 4.227-3.613 7.085l3.167 36.2c.247 2.867.373 5.729.373 8.505 0 53.762-43.738 97.5-97.5 97.5s-97.5-43.738-97.5-97.5c0-2.77.125-5.633.371-8.498l3.168-36.208c.25-2.858-1.152-5.609-3.613-7.085l-49.002-29.401c-6.738-4.043-10.924-11.436-10.924-19.294v-86.028c0-7.858 4.186-15.251 10.924-19.294l49.002-29.401c2.461-1.476 3.863-4.227 3.613-7.085l-3.167-36.196c-.247-2.877-.372-5.74-.372-8.51 0-53.762 43.738-97.5 97.5-97.5s97.5 43.738 97.5 97.5c0 2.776-.126 5.638-.373 8.498l-3.167 36.207c-.25 2.858 1.152 5.609 3.613 7.085l49.003 29.402c6.738 4.043 10.924 11.436 10.924 19.294z"/><path d="m338.182 119.714c.212-2.44.318-4.868.318-7.214 0-45.491-37.01-82.5-82.5-82.5-16.225 0-31.95 4.74-45.475 13.707-3.452 2.289-4.396 6.943-2.106 10.396 2.288 3.452 6.941 4.396 10.396 2.106 11.059-7.333 23.917-11.209 37.185-11.209 37.22 0 67.5 30.28 67.5 67.5 0 1.917-.088 3.91-.262 5.915l-9.462 108.169c-1.708 19.519-1.708 39.313 0 58.833l9.462 108.162c.174 2.012.262 4.005.262 5.922 0 37.22-30.28 67.5-67.5 67.5s-67.5-30.28-67.5-67.5c0-1.917.088-3.917.262-5.933l9.462-108.152c1.707-19.519 1.707-39.312 0-58.83l-9.466-108.188c-.171-1.998-.258-3.982-.258-5.897 0-13.267 3.876-26.125 11.208-37.186 2.289-3.452 1.346-8.106-2.106-10.395-3.452-2.29-8.106-1.347-10.396 2.107-8.967 13.524-13.706 29.249-13.706 45.473 0 2.34.105 4.754.313 7.19l9.467 108.202c1.631 18.65 1.631 37.564 0 56.215l-9.463 108.164c-.211 2.454-.317 4.886-.317 7.229 0 45.491 37.01 82.5 82.5 82.5s82.5-37.009 82.5-82.5c0-2.346-.106-4.773-.318-7.221l-9.462-108.169c-1.632-18.652-1.632-37.566 0-56.218z"/></g></svg>