<?xml version="1.0" encoding="iso-8859-1"?>
<!-- Generator: Adobe Illustrator 19.0.0, SVG Export Plug-In . SVG Version: 6.00 Build 0)  -->
<svg version="1.1" id="Capa_1" xmlns="http://www.w3.org/2000/svg" xmlns:xlink="http://www.w3.org/1999/xlink" x="0px" y="0px"
	 viewBox="0 0 512 512" style="enable-background:new 0 0 512 512;" xml:space="preserve">
<g>
	<g>
		<path d="M490.028,22.579C475.859,8.41,457.02,0.607,436.982,0.607c-20.038,0-38.877,7.803-53.045,21.972L154.783,251.732
			l21.218,21.218l-56.582,56.581l21.18,21.18c-13.301,16.655-17.277,30.863-20.852,43.665c-3.843,13.762-7.163,25.649-23.209,41.696
			s-27.934,19.367-41.696,23.209c-15.575,4.35-33.229,9.28-54.842,30.893l21.218,21.218c16.047-16.047,27.933-19.365,41.696-23.209
			c15.576-4.35,33.23-9.279,54.843-30.893c21.613-21.613,26.543-39.267,30.893-54.843c2.882-10.319,5.469-19.584,13.348-30.339
			l21.077,21.077l56.581-56.582l21.218,21.218L490.028,128.67C504.197,114.501,512,95.662,512,75.625
			C512,55.587,504.197,36.748,490.028,22.579z M183.075,350.75l-21.218-21.218l35.363-35.363l21.218,21.218L183.075,350.75z
			 M468.81,107.452L260.875,315.386l-63.655-63.655L405.155,43.797c8.502-8.502,19.805-13.183,31.827-13.183
			s23.325,4.682,31.827,13.184c8.502,8.501,13.183,19.804,13.183,31.826C481.993,87.648,477.311,98.95,468.81,107.452z"/>
	</g>
</g>
<g>
</g>
<g>
</g>
<g>
</g>
<g>
</g>
<g>
</g>
<g>
</g>
<g>
</g>
<g>
</g>
<g>
</g>
<g>
</g>
<g>
</g>
<g>
</g>
<g>
</g>
<g>
</g>
<g>
</g>
</svg>
