<svg xmlns="http://www.w3.org/2000/svg" xmlns:xlink="http://www.w3.org/1999/xlink" width="674.401" height="335.542" viewBox="0 0 674.401 335.542">
  <defs>
    <linearGradient id="linear-gradient" x1="0.588" y1="0.106" x2="0.115" y2="1.16" gradientUnits="objectBoundingBox">
      <stop offset="0" stop-color="#f7f7ee"/>
      <stop offset="1" stop-color="#fdd2bb"/>
    </linearGradient>
  </defs>
  <g id="Group_965" data-name="Group 965" transform="matrix(0.974, 0.225, -0.225, 0.974, -803.673, -844.781)">
    <path id="Path_546" data-name="Path 546" d="M83.379,76.878s5.272-2.034,96.363-7.09c1.376-.076,4.7-1.545,9.186-3.788,11.935-5.966,31.75-17.435,36.128-17.559,23.051-.651,49.566-.174,79.7,1.976C339,52.861,414.325,27.525,439.771,31.489c95.653,14.9,92.333,69.491,181.242,109.952,112.259,51.087,12.505,138.164,12.505,138.164S584.636,295.561,420,283.812c-58.612-4.183-208.83-6.288-259.187-18.5C69.46,243.172,67.036,249.447,33.242,216.139s-4.646-51.331-7.608-84.055S83.379,76.878,83.379,76.878Z" transform="matrix(0.956, -0.292, 0.292, 0.956, 966.245, 694.508)" fill="url(#linear-gradient)"/>
    <g id="Path_550" data-name="Path 550" transform="matrix(0.956, -0.292, 0.292, 0.956, 958.312, 662.231)" fill="none">
      <path d="M83.379,76.878s5.272-2.034,96.363-7.09c1.376-.076,4.7-1.545,9.186-3.788,11.935-5.966,31.75-17.435,36.128-17.559,23.051-.651,49.566-.174,79.7,1.976C339,52.861,414.325,27.525,439.771,31.489c95.653,14.9,92.333,69.491,181.242,109.952,112.259,51.087,12.505,138.164,12.505,138.164S584.636,295.561,420,283.812c-58.612-4.183-208.83-6.288-259.187-18.5C69.46,243.172,67.036,249.447,33.242,216.139s-4.646-51.331-7.608-84.055S83.379,76.878,83.379,76.878Z" stroke="none"/>
      <path d="M 433.4537963867188 32.06744384765625 C 419.9303588867188 32.0687255859375 398.8132629394531 36.512451171875 376.4563598632812 41.2171630859375 C 352.2369079589844 46.313720703125 327.1929016113281 51.58389282226562 309.749267578125 51.58389282226562 C 307.9577941894531 51.58389282226562 306.25244140625 51.52706909179688 304.6805419921875 51.41488647460938 C 283.8210754394531 49.92636108398438 263.5914306640625 49.171630859375 244.5536193847656 49.171630859375 C 237.9683532714844 49.171630859375 231.4180908203125 49.26235961914062 225.0846252441406 49.44125366210938 C 223.864990234375 49.47561645507812 220.8527221679688 50.66043090820312 216.13134765625 52.96261596679688 C 211.7888793945312 55.080078125 206.5169677734375 57.885986328125 201.4186401367188 60.59951782226562 C 197.0416259765625 62.9290771484375 192.907470703125 65.12942504882812 189.375244140625 66.89508056640625 C 184.0760498046875 69.54425048828125 181.2116088867188 70.70816040039062 179.79736328125 70.78671264648438 C 92.52801513671875 75.63005065917969 84.1456298828125 77.69769287109375 83.70654296875 77.82319641113281 C 83.40277099609375 77.93684387207031 79.67706298828125 79.34153747558594 74.32879638671875 81.82424926757812 C 65.052734375 86.1302490234375 58.108642578125 90.31343078613281 53.9166259765625 93.06434631347656 C 45.41790771484375 98.64161682128906 38.77886962890625 104.4349822998047 34.18389892578125 110.2837066650391 C 31.48114013671875 113.7238006591797 29.46832275390625 117.2178955078125 28.201416015625 120.6688079833984 C 26.81951904296875 124.4329833984375 26.291015625 128.2434387207031 26.63043212890625 131.9942626953125 C 27.104248046875 137.2294311523438 26.80743408203125 142.5648040771484 25.722900390625 148.3050689697266 C 24.7684326171875 153.3575286865234 23.33660888671875 158.1062622070312 21.95208740234375 162.6986236572266 C 19.42462158203125 171.0813446044922 17.037353515625 178.9992523193359 17.9736328125 187.4093475341797 C 18.47198486328125 191.8858947753906 19.86651611328125 196.1771545410156 22.23681640625 200.5284423828125 C 24.89605712890625 205.4100646972656 28.72552490234375 210.283447265625 33.94427490234375 215.4271545410156 C 41.2763671875 222.6539001464844 46.423095703125 227.3086242675781 51.15350341796875 230.9915313720703 C 56.2613525390625 234.9680786132812 61.12860107421875 237.9513549804688 66.47119140625 240.3799743652344 C 71.61114501953125 242.7165222167969 77.5205078125 244.7138977050781 85.63189697265625 246.8561706542969 C 93.3062744140625 248.8830718994141 102.5682373046875 250.9457092285156 114.2943725585938 253.5570678710938 C 126.6102294921875 256.2998046875 141.9378662109375 259.7132568359375 161.04443359375 264.344970703125 C 176.817626953125 268.1686096191406 203.7236328125 271.3329772949219 243.2999877929688 274.018798828125 C 277.60498046875 276.3468933105469 315.9718017578125 277.9522705078125 349.8221740722656 279.3686218261719 C 378.3008117675781 280.5602416992188 402.8958129882812 281.5894470214844 420.0673522949219 282.8147888183594 C 460.1854553222656 285.6775207519531 496.857177734375 287.1290893554688 529.0639038085938 287.1290893554688 C 546.8694458007812 287.1290893554688 563.4235229492188 286.6837158203125 578.2664184570312 285.8054504394531 C 590.1427001953125 285.1026306152344 600.9564208984375 284.1226196289062 610.4073486328125 282.8927001953125 C 625.0054931640625 280.9928283691406 631.8257446289062 279.0702819824219 633.0164184570312 278.71337890625 C 633.674072265625 278.12646484375 636.3463745117188 275.703369140625 639.9842529296875 271.8937072753906 C 646.9786987304688 264.5687255859375 652.10595703125 257.8359985351562 655.175537109375 253.4777984619141 C 661.4110717773438 244.6247100830078 666.1201782226562 235.8277130126953 669.1722412109375 227.3312530517578 C 672.9681396484375 216.7638854980469 674.1945190429688 206.6369934082031 672.8172607421875 197.2318115234375 C 672.0916137695312 192.2761688232422 670.6260986328125 187.4388885498047 668.4612426757812 182.8542633056641 C 666.1358642578125 177.9297180175781 662.9403686523438 173.1620788574219 658.9632568359375 168.6838989257812 C 654.7127075195312 163.8977966308594 649.4545288085938 159.3125305175781 643.334716796875 155.0556182861328 C 636.8331909179688 150.5330810546875 629.1835327148438 146.2589874267578 620.5983276367188 142.3519897460938 C 611.484619140625 138.2044372558594 602.7615966796875 133.63134765625 594.6718139648438 128.7596130371094 C 587.411865234375 124.3877105712891 580.5745239257812 119.7489776611328 573.76904296875 114.5782623291016 C 561.1986083984375 105.0275268554688 551.0866088867188 95.42935180664062 541.3074951171875 86.14717102050781 C 528.632080078125 74.11579895019531 516.6597290039062 62.75161743164062 501.1743469238281 53.40835571289062 C 492.909423828125 48.42153930664062 484.2636108398438 44.371337890625 474.7428894042969 41.02633666992188 C 464.1571655273438 37.30715942382812 452.6672668457031 34.51080322265625 439.61669921875 32.4775390625 C 437.8689880371094 32.20526123046875 435.7955322265625 32.0672607421875 433.4537963867188 32.06744384765625 M 433.4537353515625 31.06744384765625 C 435.8027648925781 31.06723022460938 437.916259765625 31.20053100585938 439.7706298828125 31.48944091796875 C 535.4232788085938 46.39199829101562 532.1033325195312 100.9805297851562 621.0125122070312 141.4418029785156 C 733.2714233398438 192.5291595458984 633.5177001953125 279.6053466796875 633.5177001953125 279.6053466796875 C 633.5177001953125 279.6053466796875 607.4020385742188 288.1290893554688 529.0639038085938 288.1290893554688 C 500.2210998535156 288.1290893554688 464.301513671875 286.9738464355469 419.9961547851562 283.812255859375 C 361.3841552734375 279.6296997070312 211.1661376953125 277.5242614746094 160.8087768554688 265.3168029785156 C 69.4600830078125 243.1724395751953 67.035888671875 249.4473571777344 33.24224853515625 216.1393432617188 C -0.55126953125 182.8312530517578 28.59625244140625 164.8080749511719 25.634521484375 132.0844421386719 C 22.672607421875 99.36079406738281 83.37896728515625 76.87806701660156 83.37896728515625 76.87806701660156 C 83.37896728515625 76.87806701660156 88.65142822265625 74.84361267089844 179.7418823242188 69.78825378417969 C 181.1179809570312 69.71180725097656 184.4418334960938 68.24343872070312 188.9281005859375 66.0006103515625 C 200.8636474609375 60.034423828125 220.6777954101562 48.56524658203125 225.0564270019531 48.44161987304688 C 248.107177734375 47.79052734375 274.62255859375 48.2674560546875 304.751708984375 50.41744995117188 C 306.3318786621094 50.53021240234375 308.0030822753906 50.58389282226562 309.749267578125 50.58389282226562 C 343.0881042480469 50.58389282226562 405.0570678710938 31.07009887695312 433.4537353515625 31.06744384765625 Z" stroke="none" fill="#383844"/>
    </g>
  </g>
</svg>
