<svg xmlns="http://www.w3.org/2000/svg" xmlns:xlink="http://www.w3.org/1999/xlink" width="983.205" height="345.124" viewBox="0 0 983.205 345.124">
  <defs>
    <style>
      .cls-1 {
        fill: url(#linear-gradient);
      }

      .cls-2 {
        fill: none;
      }

      .cls-3 {
        fill: #383844;
      }

      .cls-4, .cls-5 {
        stroke: none;
      }

      .cls-5 {
        fill: #e64b4b;
      }
    </style>
    <linearGradient id="linear-gradient" x1="0.288" x2="1.085" y2="0.946" gradientUnits="objectBoundingBox">
      <stop offset="0" stop-color="#fff"/>
      <stop offset="0.66" stop-color="#f3aaaa"/>
      <stop offset="1" stop-color="#fdd2bb"/>
    </linearGradient>
  </defs>
  <g id="Group_737" data-name="Group 737" transform="translate(-240 -930.438)">
    <path id="Path_529" data-name="Path 529" class="cls-1" d="M-48.533,28.042C-27.4-17.445.038-50.264,182.788-50.264S593.947-67.816,731,0s182.75,165.75,0,221S192.723,263.52,0,221-69.663,73.528-48.533,28.042Z" transform="translate(346.673 1017.744)"/>
    <g id="Path_530" data-name="Path 530" class="cls-2" transform="translate(371.673 982.744)">
      <path class="cls-4" d="M-48.533,28.042C-27.4-17.445.038-50.264,182.788-50.264S593.947-67.816,731,0s182.75,165.75,0,221S192.723,263.52,0,221-69.663,73.528-48.533,28.042Z"/>
      <path class="cls-5" d="M 380.2802734375 -51.30633544921875 C 345.8554077148438 -51.30633544921875 311.1659851074219 -50.77175903320312 277.6185607910156 -50.25491333007812 C 244.561279296875 -49.74563598632812 213.33740234375 -49.26446533203125 182.7875366210938 -49.26446533203125 C 160.406982421875 -49.26446533203125 139.7194213867188 -48.7606201171875 121.2992553710938 -47.76690673828125 C 103.4585571289062 -46.80447387695312 87.09014892578125 -45.34677124023438 72.648681640625 -43.43434143066406 C 58.7686767578125 -41.59632873535156 46.13555908203125 -39.26704406738281 35.0999755859375 -36.51133728027344 C 24.60357666015625 -33.89019775390625 15.12054443359375 -30.77433776855469 6.9144287109375 -27.25019836425781 C -0.8857421875 -23.90032958984375 -7.61700439453125 -20.19033813476562 -13.66400146484375 -15.90818786621094 C -19.212890625 -11.978759765625 -24.04144287109375 -7.664901733398438 -28.42572021484375 -2.720046997070312 C -32.29986572265625 1.649383544921875 -35.81219482421875 6.506515502929688 -39.16314697265625 12.12908935546875 C -41.90673828125 16.73208618164062 -44.5166015625 21.76966857910156 -47.6258544921875 28.46279907226562 C -51.48828125 36.77780151367188 -58.55242919921875 46.81709289550781 -66.73199462890625 58.4415283203125 C -77.44915771484375 73.6722412109375 -89.5963134765625 90.93508911132812 -97.452880859375 108.6852340698242 C -106.479736328125 129.0786743164062 -108.0577392578125 146.2319488525391 -102.2771606445312 161.1250915527344 C -99.9429931640625 167.1388092041016 -96.3388671875 172.8662414550781 -91.56488037109375 178.1483764648438 C -86.461181640625 183.7953796386719 -79.86016845703125 189.1126708984375 -71.9451904296875 193.9525146484375 C -63.54986572265625 199.0862426757812 -53.4251708984375 203.836669921875 -41.8521728515625 208.0722351074219 C -29.66387939453125 212.5329437255859 -15.51031494140625 216.553955078125 0.21539306640625 220.0233764648438 C 25.592529296875 225.6222381591797 54.0908203125 230.7652282714844 84.918701171875 235.3093719482422 C 115.4681396484375 239.8125152587891 148.193115234375 243.711669921875 182.184814453125 246.8985290527344 C 216.3889770507812 250.1052398681641 251.7427062988281 252.5779418945312 287.2639770507812 254.2479553222656 C 323.531982421875 255.9530944824219 359.9178466796875 256.8176574707031 395.4108276367188 256.8176574707031 C 427.5516967773438 256.8176574707031 459.1259765625 256.1055297851562 489.2565307617188 254.7008056640625 C 520.4932861328125 253.2446594238281 550.5452880859375 251.0262298583984 578.5778198242188 248.1070861816406 C 638.6046752929688 241.8563842773438 689.78955078125 232.4142303466797 730.7105712890625 220.0428009033203 C 750.5415649414062 214.0473785400391 768.2271118164062 207.3610992431641 783.2760009765625 200.1696624755859 C 797.7471313476562 193.2543792724609 810.0862426757812 185.7266693115234 819.95068359375 177.7955169677734 C 838.62939453125 162.7776641845703 848.8545532226562 146.0906677246094 850.34228515625 128.1979522705078 C 850.782958984375 122.8970947265625 850.4494018554688 117.4306640625 849.3509521484375 111.9502334594727 C 848.26953125 106.5546646118164 846.42138671875 101.0189514160156 843.858154296875 95.49680328369141 C 838.8150024414062 84.63252258300781 830.8997192382812 73.54508972167969 820.3321533203125 62.54237365722656 C 809.9649658203125 51.74838256835938 797.0122680664062 40.99937438964844 781.8341064453125 30.59381103515625 C 766.78955078125 20.27995300292969 749.5372924804688 10.28823852539062 730.5565795898438 0.896240234375 C 719.5641479492188 -4.54290771484375 707.6054077148438 -9.60076904296875 695.0126953125 -14.13662719726562 C 682.9041137695312 -18.498046875 669.8431396484375 -22.50875854492188 656.1925659179688 -26.05718994140625 C 643.1285400390625 -29.45304870605469 629.1201171875 -32.53062438964844 614.5565185546875 -35.20405578613281 C 600.7019653320312 -37.74748229980469 585.9014282226562 -40.00648498535156 570.5659790039062 -41.9183349609375 C 542.306396484375 -45.44132995605469 511.820556640625 -47.89462280273438 477.3661193847656 -49.41848754882812 C 448.6437072753906 -50.68875122070312 416.8865356445312 -51.30633544921875 380.2802734375 -51.30633544921875 M 380.2803344726562 -52.30630493164062 C 510.7213745117188 -52.30630493164062 640.6907958984375 -44.68641662597656 731 -4.57763671875e-05 C 868.0531005859375 67.81608581542969 913.75 165.7499542236328 731 220.9999542236328 C 645.5032348632812 246.8478088378906 522.177001953125 257.8176574707031 395.4107666015625 257.8176574707031 C 251.2131652832031 257.8176574707031 102.5604248046875 243.6273956298828 0 220.9999542236328 C -192.722900390625 178.4803771972656 -69.66259765625 73.52822875976562 -48.53271484375 28.04151916503906 C -27.40289306640625 -17.4451904296875 0.03753662109375 -50.26446533203125 182.7875366210938 -50.26446533203125 C 245.1170654296875 -50.26446533203125 312.76416015625 -52.30630493164062 380.2803344726562 -52.30630493164062 Z"/>
    </g>
    <path id="Path_531" data-name="Path 531" class="cls-3" d="M0,0H17V182H0Z" transform="translate(1066.173 1165.112) rotate(90)"/>
  </g>
</svg>
