<svg xmlns="http://www.w3.org/2000/svg" width="897.859" height="67.218" viewBox="0 0 897.859 67.218">
  <path id="Path_539" data-name="Path 539" d="M8494.089,3761.706c17.429-41.213,29.2-62.288,21.522-66.185s-17.179,25.913-35.852,29.633-4.924-19.992-38.842-14.751-58.606,35.719-96.824,35.719-17.844-35.719-56.047-35.719-62.154,35.719-96.765,35.719-10.4-35.719-41.68-35.719-57.837,32.031-83.432,35.719,7-20.968-18.947-20.968-55.866,20.968-84.83,20.968-24.947-35.719-72.664-35.719-58.159,32.031-118.2,35.719-121.976-20.968-121.976-20.968h-28.99" transform="translate(-7620.561 -3694.683)" fill="none" stroke="#e64b4b" stroke-width="1"/>
</svg>
