<svg xmlns="http://www.w3.org/2000/svg" width="24.765" height="36.602" viewBox="0 0 24.765 36.602">
  <defs>
    <style>
      .cls-1 {
        fill: #3e405c;
      }
    </style>
  </defs>
  <path id="Path_515" data-name="Path 515" class="cls-1" d="M239.372,757.067l-.075-.037c-.28-.215-.545-.459-.8-.7a7.049,7.049,0,0,0-1.684-1.257c-.666-.322-2.2-.092-3.814.153-.6.091-1.223.185-1.759.241a2.1,2.1,0,0,1-1.689-.513,3.017,3.017,0,0,1-.889-2.225c0-1.441,0-1.98-.961-2.278-.193-.061-.214-.281-.214-.736s0-1.047-.575-1.226c-.162-.05-.195-.117-.206-.14-.09-.181.054-.579.193-.964.064-.177.13-.359.183-.541.231-.792-.477-1.065-1.3-1.381a11.038,11.038,0,0,1-1.419-.633.7.7,0,0,1-.382-.437c-.154-.589.475-1.607,1.141-2.685a22.136,22.136,0,0,0,1.171-2.059,4.118,4.118,0,0,0-.207-3.64,6.859,6.859,0,0,1-.641-3.544c.588-5.2,4.635-8.652,6.413-9.932a.273.273,0,0,0,.129-.112.266.266,0,0,0,.012-.242.255.255,0,0,0-.167-.143.267.267,0,0,0-.155.006,18.32,18.32,0,1,0,7.661,35.484.257.257,0,0,0,.035-.466Z" transform="translate(-214.741 -722.035)"/>
</svg>
