<svg xmlns="http://www.w3.org/2000/svg" xmlns:xlink="http://www.w3.org/1999/xlink" width="1951.687" height="308.435" viewBox="0 0 1951.687 308.435">
  <defs>
    <style>
      .cls-1 {
        opacity: 0.883;
        fill: url(#linear-gradient);
      }
    </style>
    <linearGradient id="linear-gradient" x1="0.448" x2="0.453" y2="1" gradientUnits="objectBoundingBox">
      <stop offset="0" stop-color="#fdd2bb"/>
      <stop offset="1" stop-color="#f7f7ee"/>
    </linearGradient>
  </defs>
  <path id="波浪" class="cls-1" d="M7.636,960.188c42.842-54.68,119.322-173.736,182.444-164.728,40.4,5.764,74.956,39.518,115.446,44.321,38.985,4.622,76.015-18.158,110.737-39.29A2326.107,2326.107,0,0,1,627.2,686.5c33.515-15.927,67.96-31.164,104.069-34.175,52.614-4.39,103.94,17.407,153.363,38.861q101.964,44.268,203.928,88.529c30.227,13.123,62.257,26.463,94.026,19.93,45.04-9.259,79.026-56.328,124.008-65.967,50.691-10.859,98.1,27.868,141.315,60.549S1547.2,855.66,1592.041,826.1c24.05-15.853,42.768-47.5,70.406-47.636,13.364-.068,74.672,20,86.371,27.507,86.484,55.521,124.02,98.7,210.5,154.219Z" transform="translate(-7.636 -651.754)"/>
</svg>
